<svg width="38" height="46" viewBox="0 0 38 46" fill="none" xmlns="http://www.w3.org/2000/svg">
<path d="M32.989 3.64447H19.937L21.0571 2.46139C21.3073 2.17894 21.4403 1.81108 21.4288 1.43335C21.4171 1.05561 21.2619 0.696659 20.9947 0.430189C20.7277 0.163719 20.3691 0.00995498 19.9927 0.000466656C19.6161 -0.00902166 19.2503 0.126486 18.9702 0.379165L15.433 3.92841C15.2958 4.06578 15.1869 4.22897 15.1126 4.40864C15.0383 4.5883 15 4.78093 15 4.97544C15 5.16997 15.0383 5.36257 15.1126 5.54224C15.1869 5.7219 15.2958 5.8851 15.433 6.02247L18.9702 9.57171C19.1075 9.71074 19.271 9.821 19.4512 9.89616C19.6313 9.9713 19.8245 10.0098 20.0195 10.0095C20.213 10.0109 20.4048 9.97285 20.5832 9.89759C20.7616 9.82235 20.9228 9.71147 21.0571 9.57171C21.194 9.43535 21.3026 9.27316 21.3767 9.09447C21.4509 8.9158 21.489 8.72415 21.489 8.5306C21.489 8.33705 21.4509 8.14542 21.3767 7.96673C21.3026 7.78805 21.194 7.62585 21.0571 7.48949L20.1256 6.55485H32.989C33.5354 6.55796 34.0584 6.7771 34.4447 7.16469C34.831 7.5523 35.0493 8.07711 35.0524 8.62525V36.9719C35.0493 37.5201 34.831 38.0448 34.4447 38.4324C34.0584 38.82 33.5354 39.0392 32.989 39.0423H27.0938C26.7029 39.0423 26.3282 39.1982 26.0517 39.4754C25.7753 39.7527 25.62 40.129 25.62 40.5211C25.62 40.9133 25.7753 41.2896 26.0517 41.5668C26.3282 41.8441 26.7029 42 27.0938 42H32.989C34.3171 41.9969 35.5899 41.4661 36.529 40.5238C37.468 39.5816 37.9969 38.3045 38 36.9719V8.67257C37.9969 7.33999 37.468 6.0629 36.529 5.12062C35.5899 4.17835 34.3171 3.64759 32.989 3.64447Z" fill="#1D1C1D"/>
<path d="M19.0042 36.3597C18.724 36.1064 18.3579 35.9706 17.9813 35.9801C17.6046 35.9896 17.2458 36.1437 16.9786 36.4108C16.7114 36.6779 16.556 37.0376 16.5445 37.4162C16.5328 37.7947 16.6658 38.1635 16.9162 38.4466L17.9425 39.4782H5.01353C4.46696 39.4751 3.94369 39.2555 3.5572 38.867C3.17072 38.4785 2.95223 37.9525 2.94913 37.4031V9.03953C2.95223 8.49013 3.17072 7.96413 3.5572 7.57565C3.94369 7.18717 4.46696 6.96755 5.01353 6.96443H10.9118C11.3028 6.96443 11.678 6.80827 11.9545 6.5303C12.2309 6.25234 12.3864 5.87532 12.3864 5.48221C12.3864 5.08911 12.2309 4.7121 11.9545 4.43414C11.678 4.15617 11.3028 4 10.9118 4H5.01353C3.68481 4.00314 2.41142 4.53509 1.47187 5.47951C0.532318 6.42392 0.00311134 7.70392 0 9.03953V37.4031C0.00311134 38.7388 0.532318 40.0187 1.47187 40.9631C2.41142 41.9076 3.68481 42.4395 5.01353 42.4427H17.9897L16.9634 43.4743C16.7596 43.6807 16.6209 43.943 16.5644 44.2281C16.5078 44.5135 16.5361 44.809 16.6454 45.0783C16.7548 45.3475 16.9406 45.5786 17.1796 45.7424C17.4186 45.9063 17.7004 45.9958 17.9897 46C18.1833 46.0013 18.3752 45.9632 18.5536 45.8878C18.7322 45.8123 18.8935 45.7013 19.0278 45.5612L22.5668 42.0039C22.7041 41.8662 22.813 41.7026 22.8873 41.5225C22.9617 41.3424 23 41.1494 23 40.9545C23 40.7595 22.9617 40.5665 22.8873 40.3864C22.813 40.2063 22.7041 40.0428 22.5668 39.9051L19.0042 36.3597Z" fill="#1D1C1D"/>
<path d="M17.3188 13.0137C16.9417 12.9648 16.56 13.0622 16.2537 13.2856C15.9473 13.509 15.7396 13.8411 15.6743 14.2126L15.2752 16.9822H11.7201C11.3353 16.9822 10.9661 17.1337 10.6941 17.4036C10.4218 17.6734 10.269 18.0393 10.269 18.4209C10.269 18.8025 10.4218 19.1684 10.6941 19.4382C10.9661 19.708 11.3353 19.8596 11.7201 19.8596H14.852L14.0902 24.9671H10.5834C10.3825 24.9488 10.18 24.9723 9.98879 25.036C9.79761 25.0997 9.62191 25.2022 9.47291 25.3371C9.32392 25.4719 9.2049 25.6361 9.12348 25.8191C9.04205 26.0021 9 26.1998 9 26.3998C9 26.5998 9.04205 26.7976 9.12348 26.9806C9.2049 27.1636 9.32392 27.3277 9.47291 27.4625C9.62191 27.5973 9.79761 27.6999 9.98879 27.7636C10.18 27.8273 10.3825 27.8509 10.5834 27.8326H13.6307L13.1591 31.3694C13.1066 31.7438 13.2037 32.1237 13.4295 32.4283C13.6553 32.7328 13.9922 32.938 14.3683 33H14.586C14.9282 32.9991 15.2591 32.8783 15.5203 32.6589C15.7813 32.4395 15.9557 32.1356 16.0129 31.8011L16.6296 27.8326H20.4507L19.8945 31.3694C19.842 31.7438 19.9391 32.1237 20.1649 32.4283C20.3907 32.7328 20.7277 32.938 21.1037 33H21.3214C21.6636 32.9991 21.9945 32.8783 22.2557 32.6589C22.5167 32.4395 22.6911 32.1356 22.7483 31.8011L23.3287 27.9045H26.3639C26.7242 27.8718 27.0593 27.7067 27.3033 27.4416C27.5474 27.1765 27.6825 26.8306 27.6825 26.4718C27.6825 26.1128 27.5474 25.7669 27.3033 25.502C27.0593 25.2369 26.7242 25.0717 26.3639 25.039H23.764L24.5138 19.9316H27.5126C27.9072 19.9316 28.2853 19.7761 28.5644 19.4996C28.8433 19.223 29 18.848 29 18.4569C29 18.0657 28.8433 17.6906 28.5644 17.4141C28.2853 17.1376 27.9072 16.9822 27.5126 16.9822H24.9733L25.3239 14.6442C25.3764 14.2699 25.2793 13.8899 25.0535 13.5853C24.8276 13.2808 24.4908 13.0757 24.1147 13.0137C23.7385 12.9619 23.3568 13.0585 23.0515 13.2826C22.7463 13.5068 22.542 13.8407 22.4822 14.2126L22.0106 16.9822H18.2016L18.5402 14.6442C18.5955 14.2675 18.4981 13.8844 18.2691 13.5788C18.0403 13.2732 17.6985 13.07 17.3188 13.0137ZM21.5874 19.8596L20.8377 24.9671H17.0165L17.8388 19.8596H21.5874Z" fill="#1D1C1D"/>
</svg>
