<svg width="40" height="48" viewBox="0 0 40 48" fill="none" xmlns="http://www.w3.org/2000/svg">
<path d="M31.8002 16.0199H18.1802C17.7824 16.0199 17.4008 16.178 17.1195 16.4592C16.8383 16.7406 16.6802 17.1221 16.6802 17.5199C16.6802 17.9177 16.8383 18.2993 17.1195 18.5805C17.4008 18.8619 17.7824 19.0199 18.1802 19.0199H31.8002C32.198 19.0199 32.5796 18.8619 32.8608 18.5805C33.1422 18.2993 33.3002 17.9177 33.3002 17.5199C33.3002 17.1221 33.1422 16.7406 32.8608 16.4592C32.5796 16.178 32.198 16.0199 31.8002 16.0199Z" fill="#1D1C1D"/>
<path d="M31.8002 21.672H18.1802C17.7824 21.672 17.4008 21.8301 17.1195 22.1113C16.8383 22.3926 16.6802 22.7742 16.6802 23.172C16.6802 23.5698 16.8383 23.9514 17.1195 24.2326C17.4008 24.5139 17.7824 24.672 18.1802 24.672H31.8002C32.198 24.672 32.5796 24.5139 32.8608 24.2326C33.1422 23.9514 33.3002 23.5698 33.3002 23.172C33.3002 22.7742 33.1422 22.3926 32.8608 22.1113C32.5796 21.8301 32.198 21.672 31.8002 21.672Z" fill="#1D1C1D"/>
<path d="M31.7999 27.5999H25.4399C25.042 27.5999 24.6605 27.758 24.3793 28.0392C24.0979 28.3205 23.9399 28.7021 23.9399 29.0999C23.9399 29.4977 24.0979 29.8793 24.3793 30.1605C24.6605 30.4418 25.042 30.5999 25.4399 30.5999H31.7999C32.1977 30.5999 32.5792 30.4418 32.8606 30.1605C33.1418 29.8793 33.2999 29.4977 33.2999 29.0999C33.2999 28.7021 33.1418 28.3205 32.8606 28.0392C32.5792 27.758 32.1977 27.5999 31.7999 27.5999Z" fill="#1D1C1D"/>
<path d="M29.3996 0.900146H15.1556C13.9771 0.903323 12.8477 1.37377 12.0154 2.20834C11.1831 3.04291 10.7157 4.17348 10.7157 5.35215V28.5242L5.65166 30.1082C5.06003 30.2913 4.53386 30.6414 4.13637 31.1163C3.73889 31.5912 3.48699 32.1708 3.41096 32.7855C3.33492 33.4001 3.43797 34.0236 3.70773 34.5812C3.97749 35.1385 4.40249 35.6064 4.93166 35.9282L5.14766 36.0602L1.79966 38.9641C1.46789 39.254 1.19946 39.6091 1.01114 40.0074C0.822811 40.4057 0.718636 40.8384 0.705121 41.2788C0.691606 41.719 0.769051 42.1575 0.932596 42.5666C1.09614 42.9756 1.34229 43.3465 1.65566 43.6562L4.45166 46.4641C4.76385 46.7736 5.13594 47.016 5.54513 47.1765C5.95431 47.337 6.39198 47.4123 6.83129 47.3978C7.27059 47.383 7.70229 47.2789 8.09991 47.0916C8.49753 46.9043 8.85272 46.6376 9.14366 46.3082L12.0476 42.9962L12.1796 43.2122C12.5047 43.7369 12.9731 44.1573 13.5298 44.4239C14.0864 44.6904 14.7077 44.7918 15.3203 44.716C15.9328 44.6403 16.5106 44.3905 16.9855 43.9963C17.4604 43.6021 17.8124 43.0802 17.9996 42.4921L19.3916 38.0282H34.9916C35.5774 38.033 36.1582 37.9221 36.7009 37.7019C37.2436 37.4818 37.7377 37.1568 38.1545 36.7455C38.5714 36.334 38.903 35.8446 39.1304 35.3049C39.3578 34.765 39.4765 34.1858 39.4796 33.6002V11.1961L29.3996 0.900146ZM30.2636 6.07215L34.4156 10.3081H30.2516L30.2636 6.07215ZM15.1676 41.6041C15.1544 41.6474 15.1271 41.685 15.0902 41.711C15.0533 41.737 15.0088 41.7501 14.9636 41.7481C14.9276 41.7507 14.8918 41.743 14.8598 41.7261C14.828 41.709 14.8016 41.6835 14.7836 41.6522L12.6716 38.1962C12.6518 38.1666 12.6251 38.1423 12.5938 38.1255C12.5623 38.1088 12.5273 38.1002 12.4916 38.1002C12.4619 38.0993 12.4322 38.1053 12.4052 38.1177C12.3781 38.1301 12.3542 38.1489 12.3356 38.1721L6.92366 44.3281C6.90503 44.3514 6.88124 44.37 6.85416 44.3826C6.82709 44.3951 6.79746 44.4011 6.76766 44.4002C6.71331 44.4193 6.654 44.4193 6.59966 44.4002L3.80366 41.5322C3.764 41.4899 3.74193 41.4341 3.74193 41.3762C3.74193 41.3183 3.764 41.2625 3.80366 41.2201L9.95966 35.8202C9.98694 35.8 10.0091 35.7738 10.0244 35.7436C10.0397 35.7133 10.0477 35.68 10.0477 35.6461C10.0477 35.6122 10.0397 35.5789 10.0244 35.5487C10.0091 35.5184 9.98694 35.4922 9.95966 35.4721L6.50366 33.3602C6.46412 33.3459 6.42992 33.32 6.40574 33.2854C6.38157 33.2511 6.3686 33.2102 6.3686 33.1682C6.3686 33.1262 6.38157 33.0852 6.40574 33.0507C6.42992 33.0163 6.46412 32.9904 6.50366 32.9762L18.6596 29.1721H18.7196C18.7538 29.1699 18.7879 29.1763 18.8188 29.1906C18.8498 29.205 18.8767 29.2271 18.8971 29.2545C18.9173 29.2819 18.9304 29.3141 18.935 29.3479C18.9397 29.3817 18.9358 29.4162 18.9236 29.4481L15.1676 41.6041ZM35.0276 35.0282H20.3636L21.8396 30.3362C21.9904 29.8544 22.0255 29.3441 21.9424 28.8462C21.8591 28.3484 21.6599 27.8771 21.3608 27.4704C21.0617 27.0639 20.6711 26.7334 20.2207 26.5057C19.7702 26.2782 19.2724 26.1597 18.7676 26.1601C18.4423 26.16 18.1187 26.2086 17.8076 26.3041L13.7156 27.6002V5.35215C13.7156 4.96912 13.867 4.60161 14.1367 4.32964C14.4064 4.05768 14.7727 3.90331 15.1556 3.90015H27.2516V10.6201C27.2548 11.3341 27.5407 12.0178 28.0468 12.5216C28.5527 13.0253 29.2376 13.3081 29.9516 13.3081H36.4796V33.6002C36.4733 33.981 36.3176 34.3443 36.046 34.6115C35.7743 34.8785 35.4086 35.0282 35.0276 35.0282Z" fill="#1D1C1D"/>
</svg>
