<svg width="48" height="41" viewBox="0 0 48 41" fill="none" xmlns="http://www.w3.org/2000/svg">
<path d="M42.0001 8.34595H29.9161V5.15395C29.9161 3.80134 29.3788 2.50414 28.4224 1.5477C27.4659 0.59127 26.1687 0.0539551 24.8162 0.0539551H6.00015C4.64851 0.0571201 3.35314 0.595455 2.3974 1.55121C1.44165 2.50695 0.903314 3.80232 0.900146 5.15395V21.0779C0.900146 22.4306 1.43747 23.7278 2.39389 24.6842C3.35034 25.6406 4.64754 26.1779 6.00015 26.1779H7.92015V30.3059C7.91979 30.5924 8.0008 30.873 8.15376 31.1153C8.30673 31.3574 8.52534 31.5512 8.78415 31.6739C9.0462 31.7889 9.33483 31.8296 9.61843 31.7915C9.90204 31.7534 10.1697 31.638 10.3921 31.4579L16.7041 26.1779H18.0842V29.3579C18.0842 30.7137 18.6228 32.0139 19.5815 32.9727C20.5401 33.9314 21.8403 34.4699 23.1961 34.4699H31.2962L37.6082 39.7619C37.8824 39.9866 38.2257 40.1096 38.5802 40.1099C38.8002 40.1096 39.0174 40.0604 39.2161 39.9659C39.4731 39.8441 39.6905 39.6522 39.8433 39.4122C39.9962 39.1724 40.0782 38.8943 40.0802 38.6099V34.4699H42.0001C43.3527 34.4699 44.6499 33.9326 45.6065 32.9762C46.5629 32.0198 47.1002 30.7226 47.1002 29.3699V13.4459C47.097 12.0944 46.5586 10.799 45.6028 9.84321C44.6472 8.88745 43.3518 8.34912 42.0001 8.34595ZM16.1521 23.1779C15.8024 23.1839 15.4646 23.3063 15.1922 23.5259L10.9201 27.1259V24.7259C10.9201 24.3281 10.7621 23.9466 10.4808 23.6652C10.1995 23.384 9.81796 23.2259 9.42015 23.2259H6.00015C5.44318 23.2259 4.90905 23.0046 4.51522 22.6109C4.1214 22.217 3.90015 21.6828 3.90015 21.1259V5.15395C3.9033 4.59796 4.12555 4.06566 4.5187 3.67251C4.91185 3.27936 5.44416 3.0571 6.00015 3.05395H24.8162C25.3731 3.05395 25.9073 3.2752 26.301 3.66903C26.6949 4.06285 26.9161 4.59699 26.9161 5.15395V21.0659C26.9161 21.3432 26.8616 21.6179 26.7554 21.8742C26.6493 22.1304 26.4936 22.3632 26.2976 22.5593C26.1015 22.7555 25.8685 22.911 25.6124 23.0172C25.3561 23.1233 25.0815 23.1779 24.8041 23.1779H16.1521ZM44.1002 29.3699C44.1002 29.9268 43.8789 30.461 43.485 30.8549C43.0913 31.2486 42.5571 31.4699 42.0001 31.4699H38.5802C38.1824 31.4699 37.8008 31.628 37.5195 31.9092C37.2383 32.1906 37.0802 32.5721 37.0802 32.9699V35.3699L32.8082 31.7699C32.5409 31.5399 32.2006 31.4124 31.8481 31.4099H23.1961C22.636 31.4099 22.0988 31.1874 21.7028 30.7913C21.3066 30.3953 21.0842 29.8581 21.0842 29.2979V26.1779H24.8162C26.1687 26.1779 27.4659 25.6406 28.4224 24.6842C29.3788 23.7278 29.9161 22.4306 29.9161 21.0779V11.3579H42.0001C42.5562 11.361 43.0884 11.5833 43.4815 11.9765C43.8747 12.3696 44.097 12.902 44.1002 13.4579V29.3699Z" fill="#1D1C1D"/>
<path d="M9.16803 11.3219C8.854 11.3289 8.54905 11.4285 8.29137 11.6082C8.03368 11.7878 7.83474 12.0395 7.71943 12.3317C7.60414 12.6239 7.57762 12.9435 7.64322 13.2507C7.7088 13.5579 7.86357 13.8389 8.08815 14.0585C8.31271 14.2781 8.5971 14.4266 8.90568 14.4854C9.21424 14.544 9.53328 14.5104 9.82282 14.3886C10.1124 14.2668 10.3595 14.0624 10.5334 13.8008C10.7072 13.539 10.8 13.232 10.8 12.9179C10.8017 12.7047 10.7604 12.4935 10.6786 12.2967C10.5967 12.0999 10.476 11.9217 10.3236 11.7726C10.1712 11.6237 9.99033 11.507 9.79176 11.4294C9.5932 11.352 9.38106 11.3154 9.16803 11.3219Z" fill="#1D1C1D"/>
<path d="M15.444 11.3219C15.1288 11.3243 14.8215 11.42 14.5606 11.5967C14.2997 11.7736 14.097 12.0236 13.9781 12.3155C13.8591 12.6073 13.8292 12.9278 13.8921 13.2367C13.9551 13.5454 14.108 13.8287 14.3317 14.0507C14.5554 14.2727 14.8398 14.4235 15.1489 14.4841C15.4582 14.5447 15.7785 14.5124 16.0695 14.3914C16.3603 14.2702 16.609 14.0656 16.7838 13.8034C16.9587 13.5412 17.052 13.2331 17.052 12.9179C17.052 12.7073 17.0103 12.4988 16.9293 12.3044C16.8484 12.11 16.7298 11.9335 16.5802 11.7851C16.4308 11.6368 16.2534 11.5195 16.0584 11.44C15.8634 11.3605 15.6546 11.3204 15.444 11.3219Z" fill="#1D1C1D"/>
<path d="M21.7322 14.5139C22.0478 14.5139 22.3565 14.4203 22.6188 14.2449C22.8813 14.0696 23.0859 13.8203 23.2067 13.5287C23.3274 13.2371 23.3591 12.9161 23.2976 12.6065C23.2359 12.2969 23.084 12.0125 22.8608 11.7893C22.6376 11.5661 22.3532 11.4141 22.0436 11.3525C21.734 11.291 21.413 11.3226 21.1214 11.4434C20.8298 11.5641 20.5805 11.7687 20.4051 12.0312C20.2298 12.2936 20.1362 12.6023 20.1362 12.9179C20.1345 13.1279 20.1747 13.3362 20.2544 13.5305C20.334 13.7249 20.4516 13.9014 20.6001 14.0499C20.7486 14.1984 20.9252 14.316 21.1196 14.3957C21.3138 14.4753 21.5222 14.5155 21.7322 14.5139Z" fill="#1D1C1D"/>
</svg>
