<svg width="43" height="48" viewBox="0 0 43 48" fill="none" xmlns="http://www.w3.org/2000/svg">
<path d="M37.6959 7.19985C35.8926 5.12652 33.6652 3.46438 31.1644 2.32578C28.6636 1.18716 25.9476 0.598602 23.1999 0.599856C22.3531 0.602052 21.5074 0.658165 20.6679 0.767855C17.4055 1.18612 14.3052 2.43543 11.6644 4.39603C9.02356 6.35662 6.93065 8.96277 5.58635 11.9646C4.24205 14.9664 3.69142 18.2633 3.98725 21.5389C4.28308 24.8146 5.41546 27.9594 7.27582 30.6719L1.51582 38.0759C0.849786 38.9289 0.437016 39.9522 0.324651 41.0286C0.212286 42.105 0.404841 43.1914 0.880341 44.1637C1.35583 45.1359 2.09512 45.9549 3.01379 46.5272C3.93245 47.0994 4.99351 47.4018 6.07582 47.3998C6.95003 47.4011 7.81297 47.2028 8.599 46.8201C9.38503 46.4375 10.0734 45.8806 10.6118 45.1918L16.3599 37.8718C19.4955 39.0609 22.8858 39.4164 26.1999 38.9039C29.6122 38.3853 32.8216 36.9566 35.4906 34.7679C38.1594 32.5793 40.1889 29.7116 41.3655 26.4668C42.5421 23.222 42.8223 19.7199 42.1764 16.3293C41.5306 12.9388 39.9828 9.78498 37.6959 7.19985ZM39.3519 22.0559C38.8888 25.534 37.3156 28.77 34.866 31.2824C32.4163 33.7946 29.2212 35.4492 25.7559 35.9999C24.918 36.1281 24.0715 36.1923 23.2239 36.1918C20.8605 36.1966 18.525 35.6804 16.3839 34.6798C16.203 34.5965 16.0069 34.5516 15.8079 34.5479C15.6163 34.5477 15.4273 34.5909 15.255 34.674C15.0825 34.7571 14.931 34.878 14.8119 35.0279L8.25982 43.4278C7.99082 43.742 7.65524 43.992 7.27745 44.1601C6.89968 44.3283 6.48919 44.4102 6.07582 44.3998C5.55686 44.3994 5.04847 44.2533 4.60846 43.9782C4.16846 43.7029 3.81454 43.3098 3.58697 42.8434C3.35939 42.3771 3.26732 41.8561 3.32122 41.34C3.37511 40.8238 3.57281 40.3332 3.89182 39.9239L10.4558 31.5238C10.631 31.297 10.726 31.0185 10.726 30.7318C10.726 30.4452 10.631 30.1667 10.4558 29.9398C8.80255 27.8281 7.69727 25.3403 7.23848 22.6978C6.77969 20.0555 6.98162 17.3407 7.82629 14.7952C8.67095 12.2498 10.1321 9.95284 12.0796 8.10897C14.0271 6.26508 16.4005 4.93153 18.9882 4.22715C21.576 3.52276 24.2977 3.46941 26.9112 4.07182C29.5245 4.67424 31.9483 5.91373 33.9666 7.67988C35.9848 9.44602 37.5349 11.684 38.4787 14.1943C39.4225 16.7048 39.7306 19.4095 39.3759 22.0679L39.3519 22.0559Z" fill="#1D1C1D"/>
<path d="M23.2 8.77185C20.4134 8.77725 17.7304 9.82832 15.6815 11.7171C13.6328 13.6059 12.3675 16.1949 12.136 18.9719H10.336C10.2353 18.9704 10.1364 18.9992 10.0522 19.0544C9.96796 19.1097 9.90223 19.1889 9.86347 19.2819C9.82473 19.3749 9.81474 19.4775 9.83481 19.5762C9.85486 19.6749 9.90406 19.7654 9.97603 19.8359L13.168 23.0399C13.2644 23.1338 13.3936 23.1863 13.528 23.1863C13.6625 23.1863 13.7917 23.1338 13.888 23.0399L17.092 19.8359C17.164 19.7654 17.2132 19.6749 17.2333 19.5762C17.2534 19.4775 17.2433 19.3749 17.2046 19.2819C17.1658 19.1889 17.1001 19.1097 17.0159 19.0544C16.9316 18.9992 16.8328 18.9704 16.732 18.9719H15.088C15.3058 17.0856 16.18 15.3362 17.5579 14.0298C18.9358 12.7235 20.7292 11.9435 22.6243 11.8265C24.5194 11.7095 26.3953 12.2629 27.9233 13.3899C29.4514 14.5169 30.5342 16.1456 30.9823 17.9906C31.4303 19.8357 31.2149 21.7796 30.3739 23.4818C29.5328 25.1841 28.1197 26.5362 26.3821 27.3013C24.6443 28.0665 22.6928 28.1958 20.8693 27.6669C19.0457 27.1378 17.4665 25.9842 16.408 24.4079C16.1861 24.0794 15.8432 23.8519 15.4543 23.7754C15.0652 23.6991 14.6618 23.7797 14.332 23.9999C14.0027 24.224 13.775 24.5689 13.6987 24.96C13.6223 25.3509 13.7033 25.7562 13.924 26.0878C14.9936 27.6772 16.456 28.9631 18.1691 29.8204C19.8823 30.678 21.788 31.0779 23.7014 30.9816C25.6147 30.8853 27.4706 30.296 29.089 29.2709C30.7073 28.2458 32.0332 26.8196 32.9378 25.1309C33.8425 23.4422 34.2952 21.5483 34.252 19.6329C34.2088 17.7177 33.671 15.8462 32.6911 14.1999C31.7113 12.5538 30.3224 11.1889 28.6594 10.2378C26.9965 9.28671 25.1158 8.78172 23.2 8.77185Z" fill="#1D1C1D"/>
</svg>
