<svg width="19" height="20" viewBox="0 0 19 20" fill="none" xmlns="http://www.w3.org/2000/svg">
<path d="M6.09937 15V16C6.09937 16.7956 6.41544 17.5587 6.97804 18.1213C7.54065 18.6839 8.30372 19 9.09937 19C9.89501 19 10.6581 18.6839 11.2207 18.1213C11.7833 17.5587 12.0994 16.7956 12.0994 16V15M7.09937 3C7.09937 2.46957 7.31008 1.96086 7.68515 1.58579C8.06022 1.21071 8.56893 1 9.09937 1C9.6298 1 10.1385 1.21071 10.5136 1.58579C10.8887 1.96086 11.0994 2.46957 11.0994 3C12.2478 3.54303 13.2268 4.38833 13.9314 5.4453C14.6361 6.50227 15.0398 7.73107 15.0994 9V12C15.1746 12.6217 15.3948 13.2171 15.7422 13.7381C16.0896 14.2592 16.5544 14.6914 17.0994 15H1.09937C1.6443 14.6914 2.10917 14.2592 2.45655 13.7381C2.80393 13.2171 3.02411 12.6217 3.09937 12V9C3.15893 7.73107 3.56267 6.50227 4.26731 5.4453C4.97196 4.38833 5.95096 3.54303 7.09937 3Z" stroke="#FFBF35" stroke-width="2" stroke-linecap="round" stroke-linejoin="round"/>
</svg>
