<svg width="25" height="16" viewBox="0 0 25 16" fill="none" xmlns="http://www.w3.org/2000/svg">
<path d="M17.5994 4C17.5994 4 19.0994 5.5 19.0994 8C19.0994 10.5 17.5994 12 17.5994 12M20.5994 1C20.5994 1 23.0994 3.5 23.0994 8C23.0994 12.5 20.5994 15 20.5994 15M6.59937 4C6.59937 4 5.09937 5.5 5.09937 8C5.09937 10.5 6.59937 12 6.59937 12M3.59937 1C3.59937 1 1.09937 3.5 1.09937 8C1.09937 12.5 3.59937 15 3.59937 15" stroke="#FFBF35" stroke-width="2" stroke-linecap="round" stroke-linejoin="round"/>
<path d="M12.0994 9C12.3646 9 12.6189 8.89464 12.8065 8.70711C12.994 8.51957 13.0994 8.26522 13.0994 8C13.0994 7.73478 12.994 7.48043 12.8065 7.29289C12.6189 7.10536 12.3646 7 12.0994 7C11.8341 7 11.5798 7.10536 11.3923 7.29289C11.2047 7.48043 11.0994 7.73478 11.0994 8C11.0994 8.26522 11.2047 8.51957 11.3923 8.70711C11.5798 8.89464 11.8341 9 12.0994 9Z" fill="#FFBF35" stroke="#FFBF35" stroke-width="2" stroke-linecap="round" stroke-linejoin="round"/>
</svg>
