<svg width="23" height="20" viewBox="0 0 23 20" fill="none" xmlns="http://www.w3.org/2000/svg">
<path d="M10.9994 20L15.5494 8H17.6494L22.1994 20H20.0994L19.0494 16.95H14.1994L13.0994 20H10.9994ZM14.7994 15.2H18.3994L16.6494 10.25H16.5494L14.7994 15.2ZM3.09937 17L1.69937 15.6L6.74937 10.55C6.11603 9.85 5.5617 9.125 5.08637 8.375C4.61103 7.625 4.1987 6.83333 3.84937 6H5.94937C6.24937 6.6 6.57037 7.14167 6.91237 7.625C7.25437 8.10833 7.6667 8.61667 8.14937 9.15C8.8827 8.35 9.49103 7.529 9.97437 6.687C10.4577 5.845 10.866 4.94933 11.1994 4H0.0993652V2H7.09937V0H9.09937V2H16.0994V4H13.1994C12.8494 5.18333 12.3744 6.33333 11.7744 7.45C11.1744 8.56667 10.4327 9.61667 9.54937 10.6L11.9494 13.05L11.1994 15.1L8.09937 12L3.09937 17Z" fill="#008DDD"/>
</svg>
