<svg width="14" height="14" viewBox="0 0 14 14" fill="none" xmlns="http://www.w3.org/2000/svg">
<path d="M7.354 0.146009C7.30756 0.0994456 7.25238 0.0625027 7.19163 0.0372962C7.13089 0.0120898 7.06577 -0.00088501 7 -0.00088501C6.93423 -0.00088501 6.86911 0.0120898 6.80837 0.0372962C6.74762 0.0625027 6.69245 0.0994456 6.646 0.146009L0.646001 6.14601C0.599599 6.19253 0.562821 6.24774 0.537769 6.30848C0.512717 6.36922 0.499883 6.4343 0.500001 6.50001V13.5C0.500001 13.6326 0.552679 13.7598 0.646447 13.8536C0.740216 13.9473 0.867393 14 1 14H5.5C5.63261 14 5.75979 13.9473 5.85355 13.8536C5.94732 13.7598 6 13.6326 6 13.5V9.50001H8V13.5C8 13.6326 8.05268 13.7598 8.14645 13.8536C8.24022 13.9473 8.36739 14 8.5 14H13C13.1326 14 13.2598 13.9473 13.3536 13.8536C13.4473 13.7598 13.5 13.6326 13.5 13.5V6.50001C13.5001 6.4343 13.4873 6.36922 13.4622 6.30848C13.4372 6.24774 13.4004 6.19253 13.354 6.14601L12 4.79301V1.50001C12 1.3674 11.9473 1.24022 11.8536 1.14646C11.7598 1.05269 11.6326 1.00001 11.5 1.00001H10.5C10.3674 1.00001 10.2402 1.05269 10.1464 1.14646C10.0527 1.24022 10 1.3674 10 1.50001V2.79301L7.354 0.146009ZM1.5 13V6.70701L7 1.20701L12.5 6.70701V13H9V9.00001C9 8.8674 8.94732 8.74022 8.85355 8.64645C8.75979 8.55269 8.63261 8.50001 8.5 8.50001H5.5C5.36739 8.50001 5.24022 8.55269 5.14645 8.64645C5.05268 8.74022 5 8.8674 5 9.00001V13H1.5Z" fill="white"/>
</svg>
