<svg width="45" height="44" viewBox="0 0 45 44" fill="none" xmlns="http://www.w3.org/2000/svg">
<rect x="0.333374" width="44" height="44" rx="8" fill="#0068BC"/>
<path d="M15.3333 33.6667C14.6917 33.6667 14.1422 33.438 13.6848 32.9807C13.2275 32.5233 12.9992 31.9742 13 31.3333V17.3333C13 16.6917 13.2287 16.1422 13.686 15.6848C14.1433 15.2275 14.6924 14.9992 15.3333 15H17.6667C17.6667 13.7167 18.1236 12.6181 19.0375 11.7042C19.9514 10.7903 21.05 10.3333 22.3333 10.3333C23.6167 10.3333 24.7153 10.7903 25.6292 11.7042C26.5431 12.6181 27 13.7167 27 15H29.3333C29.975 15 30.5245 15.2287 30.9818 15.686C31.4392 16.1433 31.6674 16.6925 31.6667 17.3333V31.3333C31.6667 31.975 31.438 32.5245 30.9807 32.9818C30.5233 33.4392 29.9742 33.6675 29.3333 33.6667H15.3333ZM15.3333 31.3333H29.3333V17.3333H27V19.6667C27 19.9972 26.888 20.2745 26.664 20.4985C26.44 20.7225 26.1631 20.8341 25.8333 20.8333C25.5028 20.8333 25.2255 20.7213 25.0015 20.4973C24.7775 20.2733 24.6659 19.9965 24.6667 19.6667V17.3333H20V19.6667C20 19.9972 19.888 20.2745 19.664 20.4985C19.44 20.7225 19.1631 20.8341 18.8333 20.8333C18.5028 20.8333 18.2255 20.7213 18.0015 20.4973C17.7775 20.2733 17.6659 19.9965 17.6667 19.6667V17.3333H15.3333V31.3333ZM20 15H24.6667C24.6667 14.3583 24.438 13.8088 23.9807 13.3515C23.5233 12.8942 22.9742 12.6659 22.3333 12.6667C21.6917 12.6667 21.1422 12.8953 20.6848 13.3527C20.2275 13.81 19.9992 14.3591 20 15Z" fill="white"/>
</svg>
