<svg width="25" height="24" viewBox="0 0 25 24" fill="none" xmlns="http://www.w3.org/2000/svg">
<path d="M2.16675 8.5V20.1667C2.16675 20.7855 2.41258 21.379 2.85017 21.8166C3.28775 22.2542 3.88124 22.5 4.50008 22.5H20.8334C21.4523 22.5 22.0457 22.2542 22.4833 21.8166C22.9209 21.379 23.1667 20.7855 23.1667 20.1667V8.5" stroke="#FFBF35" stroke-width="1.75"/>
<path d="M22.566 1.5H17.9087L18.492 7.33333C18.492 7.33333 19.6587 8.5 21.4087 8.5C22.3273 8.50121 23.2148 8.16681 23.9042 7.55967C23.9771 7.49156 24.0314 7.40601 24.062 7.31109C24.0926 7.21617 24.0985 7.11501 24.0792 7.01717L23.2555 2.08333C23.228 1.92034 23.1436 1.77236 23.0174 1.66559C22.8912 1.55883 22.7313 1.50017 22.566 1.5Z" stroke="#FFBF35" stroke-width="1.75"/>
<path d="M17.9087 1.5L18.492 7.33333C18.492 7.33333 17.3254 8.5 15.5754 8.5C13.8254 8.5 12.6587 7.33333 12.6587 7.33333V1.5H17.9087Z" stroke="#FFBF35" stroke-width="1.75"/>
<path d="M12.6587 1.5V7.33333C12.6587 7.33333 11.492 8.5 9.74198 8.5C7.99198 8.5 6.82532 7.33333 6.82532 7.33333L7.40865 1.5H12.6587Z" stroke="#FFBF35" stroke-width="1.75"/>
<path d="M7.40863 1.5H2.75247C2.5868 1.49994 2.42647 1.55864 2.30001 1.66566C2.17354 1.77269 2.08914 1.9211 2.0618 2.0845L1.2393 7.01833C1.22008 7.11618 1.22605 7.21731 1.25667 7.31221C1.28728 7.40711 1.34153 7.49266 1.4143 7.56083C1.79697 7.89917 2.65213 8.50117 3.90863 8.50117C5.65863 8.50117 6.8253 7.3345 6.8253 7.3345L7.40863 1.5Z" stroke="#FFBF35" stroke-width="1.75"/>
</svg>
